<svg width="256" height="328" viewBox="0 0 256 328" xmlns="http://www.w3.org/2000/svg" preserveAspectRatio="xMidYMid"><path d="M179.257 98.215c135.795 67.576 72.605 195.517-45.395 202.093-4.988.278-10.012.042-14.954-.692C6.538 282.924-33.745 169.793 72.222 103.22c32.287-20.283 72.898-21.993 107.035-5.005" fill="#794422"/><path d="M170.746 297.51c59.457-34.315 86.973-131.687 37.182-217.087 2.813-14.938 4.5-28.894 4.737-41.584.468-4.112-3.517-7.3-7.423-5.942-11.644 2.853-22.853 6.69-33.558 11.662-8.105-5.648-16.486-7.553-23.368-7.916-3.745-.197-2.33-5.825-2.027-7.892 1.778-3.895 3.466-7.162 7.653-10.897 2.908-2.66-.74-6.316-4.077-4.222-5.437 2.597-8.833 5.218-12.662 9.038-1.087.808-2.388.733-3.324.558-.67-.125-1.155-.735-1.228-1.412-.82-7.54.03-14.302 6.627-19.39 1.24-.957-.007-2.796-1.432-2.36-11.01 3.36-15.784 10.974-19.6 20.387-3.066-2.154-6.653-4.038-10.734-5.666-.69-.365-1.592-.6-2.214-.13-1.116.844-2.504 1.718-1.86 3.22 4.33 6.276 8.683 12.386 13.305 16.383-10.942 2.322-21.29 6.145-30.903 11.827L49.358 32.053c-4.76-1.83-9.733 2.137-9.003 7.186 2.087 21.673 4.23 42.61 7.335 50.721-42.522 87.546-16.375 175.347 40.225 207.55H0v29.757h256V297.51h-85.254z" fill="#502D17"/><path d="M128.763 106.94c16.31-40.347 52.284-45.534 77.83-19.745 21.203 21.405 21.747 80.406-29.758 91.28 52.363 43.492 16.596 117.316-43.208 117.316-60.09-.857-98.432-73.25-42.634-117.888-52.078 2.29-60.96-52.16-42.063-83.553 17.28-28.71 67.243-33.193 79.833 12.59" fill="#FFF"/><path d="M152.513 161.592c1.464-2.11 1.387-4.898-.104-6.99-4.996-7-12.15-12.754-22.502-12.754-10.627 0-16.942 5.772-22.748 13.45-1.516 2.002-1.622 4.77-.237 6.865 4.36 6.595 11.866 12.706 20.348 18.975 1.562 1.154 3.692 1.118 5.216-.085 7.974-6.297 15.42-12.817 20.027-19.46" fill="#FF7F2B"/><path d="M189.425 122.582c0 18.727-12.324 33.525-26.468 33.525s-25.61-15.18-25.61-33.907c0-18.727 11.466-33.907 25.61-33.907s26.468 15.56 26.468 34.288zm-69.628 3.338c0 18.727-12.324 33.526-26.468 33.526-14.145 0-25.61-15.18-25.61-33.908 0-18.726 11.465-33.907 25.61-33.907 14.143 0 26.467 15.563 26.467 34.29z" fill="#B1DFEC"/><path d="M179.6 126.587c0 12.276-7.67 22.136-16.547 22.136-8.876 0-16.453-9.955-16.453-22.23 0-12.277 7.577-22.225 16.453-22.225s16.548 10.043 16.548 22.32zm-69.054-.38c0 12.275-7.672 22.135-16.55 22.135-8.874 0-16.45-9.955-16.45-22.23-.002-12.277 7.575-22.225 16.45-22.225 8.878 0 16.55 10.043 16.55 22.32z"/><path d="M166.82 115.905c0 3.74-2.99 6.772-6.677 6.772-3.687 0-6.676-3.032-6.676-6.772s2.99-6.772 6.676-6.772c3.688 0 6.677 3.032 6.677 6.772zm-64-.382c0 3.74-2.99 6.772-6.677 6.772-3.687 0-6.676-3.032-6.676-6.772s2.99-6.772 6.676-6.772c3.688 0 6.677 3.033 6.677 6.773z" fill="#FFF"/><path d="M72.966 311.72s-.19 8.107 5.246 8.203c1.704 5.12 7.723 5.094 8.68.667h6.867s-.67 3.53 3.433 3.434c4.1-.095 3.72-3.72 3.72-3.72h6.485s-.954 3.72 3.243 3.72c4.198 0 3.996-4.262 3.996-4.262 2.358-1.482 5.114-1.365 5.114-5.944 0-.997-.24-2.085-.698-3.212-2.486-6.1-11.43-13.337-23.958-13.384-8.04.053-15.53 4.957-20.507 9.777-1.526 1.477-1.62 4.72-1.62 4.72zm113.5 0s.002 8.393-5.435 8.49c-.856 4.863-7.854 4.806-8.49.38h-6.867s.477 3.53-3.624 3.434c-4.103-.095-3.53-3.72-3.53-3.72h-6.486s.763 3.72-3.434 3.72-3.804-4.262-3.804-4.262c-2.358-1.482-5.114-1.365-5.114-5.944 0-.997.24-2.085.698-3.212 2.486-6.1 11.43-13.337 23.958-13.384 8.04.053 14.797 4.906 20.03 9.443 2.1 2.194 2.098 5.055 2.098 5.055z" fill="#FF7F2B"/></svg>